# xmcd CD database file
#
# Track frame offsets:
#	150
#	4420
#	16191
#	17486
#	39002
#	42682
#	73478
#	100451
#	118349
#	124967
#	153542
#	157870
#	186003
#	190584
#	192207
#	227690
#	231425
#	256211
#	257699
#	269219
#
# Disc length: 3642 seconds
#
# Revision: 0
# Processed by: cddbd v1.5.2PL0 Copyright (c) Steve Scherf et al.
# Submitted via: CDex 1.51
#
DISCID=190e3814
DTITLE=Rahsaan Roland Kirk - The Case of the 3 Sided Dream in Audio Color
DYEAR=1975
DGENRE=Jazz
TTITLE0=CONVERSATION
TTITLE1=BYE BEY BLACKBIRDD
TTITLE2=HORSES (MONOGRAM/REPUBLIC)
TTITLE3=HIGH HEEL SNEAKERS
TTITLE4=DREAM
TTITLE5=ECHOES OF PRIMITIVE OHIO AND CHILI DOGS
TTITLE6=THE ENTERTAINER (Done in the style of The Blues)
TTITLE7=FREAKS FOR THE FESTIVAL
TTITLE8=DREAM
TTITLE9=PORTRAIT OF THOSE BEAUTIFUL ADIES
TTITLE10=DREAM
TTITLE11=THE ENTERTAINER
TTITLE12=DREAM
TTITLE13=DREAM
TTITLE14=PORTRAIT OF THOSE BEAUTIFUL LADIES
TTITLE15=DREAM
TTITLE16=FREAKS FOR THE FESTIVAL
TTITLE17=SESROH
TTITLE18=BYE BYE BLACKBIRD
TTITLE19=CONVERSATION
EXTD=YEAR: 1975
EXTT0=
EXTT1=
EXTT2=
EXTT3=
EXTT4=
EXTT5=
EXTT6=
EXTT7=
EXTT8=
EXTT9=
EXTT10=
EXTT11=
EXTT12=
EXTT13=
EXTT14=
EXTT15=
EXTT16=
EXTT17=
EXTT18=
EXTT19=
PLAYORDER=
